<?xml version="1.0" standalone="no"?>
<!DOCTYPE svg PUBLIC "-//W3C//DTD SVG 20010904//EN"
 "http://www.w3.org/TR/2001/REC-SVG-20010904/DTD/svg10.dtd">
<svg version="1.0" xmlns="http://www.w3.org/2000/svg"
 width="135.000000pt" height="135.000000pt" viewBox="0 0 135.000000 135.000000"
 preserveAspectRatio="xMidYMid meet">
<metadata>
Created by potrace 1.11, written by Peter Selinger 2001-2013
</metadata>
<g transform="translate(0.000000,135.000000) scale(0.100000,-0.100000)"
fill="#000000" stroke="none">
<path d="M461 1040 c-103 -28 -173 -65 -254 -137 -38 -35 -73 -63 -77 -63 -19
0 -70 -54 -70 -74 0 -57 107 -146 176 -146 26 0 26 1 11 18 -25 27 -21 49 11
60 31 11 64 7 95 -10 12 -7 26 -11 30 -10 4 1 14 -11 20 -28 10 -23 16 -27 25
-18 9 9 12 8 13 -8 3 -42 2 -60 -5 -82 -7 -21 -6 -22 18 -10 14 6 28 9 31 6 3
-2 -9 -31 -27 -64 -33 -61 -24 -62 30 -4 13 14 39 42 58 63 42 44 62 46 102
12 l30 -25 7 32 c8 36 33 78 46 78 4 0 11 -17 15 -37 11 -62 18 -69 43 -42 31
33 51 74 54 109 2 34 15 37 60 13 30 -15 31 -15 18 0 -12 15 -10 17 15 18 16
0 36 2 44 4 8 1 41 8 73 14 32 6 77 16 100 22 39 11 40 13 17 20 -22 6 -20 7
15 10 22 1 46 2 54 2 28 -2 -7 14 -69 31 -84 23 -117 38 -223 107 -85 56 -86
58 -55 61 32 3 32 4 -31 37 -35 18 -84 39 -110 46 -75 19 -206 17 -290 -5z"/>
</g>
</svg>
